<svg id="visual" viewBox="0 0 1920 1080" width="1920" height="1080"
  xmlns="http://www.w3.org/2000/svg"
  xmlns:xlink="http://www.w3.org/1999/xlink" version="1.1">
  <rect x="0" y="0" width="1920" height="1080" fill="#FCAF3C"></rect>
  <g fill="#dd972e">
    <circle r="26" cx="103" cy="476"></circle>
    <circle r="2" cx="950" cy="330"></circle>
    <circle r="17" cx="1708" cy="953"></circle>
    <circle r="17" cx="1054" cy="725"></circle>
    <circle r="4" cx="933" cy="457"></circle>
    <circle r="1" cx="571" cy="78"></circle>
    <circle r="12" cx="210" cy="279"></circle>
    <circle r="14" cx="1286" cy="522"></circle>
    <circle r="11" cx="1907" cy="692"></circle>
    <circle r="13" cx="1575" cy="159"></circle>
    <circle r="5" cx="1888" cy="298"></circle>
    <circle r="19" cx="958" cy="64"></circle>
    <circle r="13" cx="412" cy="130"></circle>
    <circle r="16" cx="81" cy="192"></circle>
    <circle r="18" cx="1358" cy="380"></circle>
    <circle r="18" cx="121" cy="833"></circle>
    <circle r="3" cx="1358" cy="32"></circle>
    <circle r="20" cx="1723" cy="613"></circle>
    <circle r="9" cx="1325" cy="165"></circle>
    <circle r="21" cx="1647" cy="429"></circle>
    <circle r="2" cx="831" cy="380"></circle>
    <circle r="23" cx="990" cy="181"></circle>
    <circle r="18" cx="1242" cy="456"></circle>
    <circle r="15" cx="201" cy="1052"></circle>
    <circle r="3" cx="928" cy="523"></circle>
    <circle r="2" cx="336" cy="670"></circle>
    <circle r="20" cx="605" cy="835"></circle>
    <circle r="9" cx="789" cy="343"></circle>
    <circle r="6" cx="335" cy="496"></circle>
    <circle r="15" cx="908" cy="249"></circle>
    <circle r="22" cx="1012" cy="803"></circle>
    <circle r="21" cx="1009" cy="60"></circle>
    <circle r="10" cx="524" cy="938"></circle>
    <circle r="8" cx="542" cy="995"></circle>
    <circle r="16" cx="1118" cy="144"></circle>
    <circle r="6" cx="787" cy="1001"></circle>
    <circle r="15" cx="763" cy="284"></circle>
    <circle r="8" cx="925" cy="782"></circle>
    <circle r="15" cx="1594" cy="884"></circle>
    <circle r="24" cx="948" cy="830"></circle>
    <circle r="23" cx="1845" cy="245"></circle>
    <circle r="22" cx="1740" cy="280"></circle>
    <circle r="18" cx="899" cy="690"></circle>
    <circle r="13" cx="120" cy="933"></circle>
    <circle r="17" cx="1332" cy="959"></circle>
    <circle r="3" cx="1836" cy="329"></circle>
    <circle r="8" cx="229" cy="481"></circle>
    <circle r="15" cx="1043" cy="253"></circle>
    <circle r="19" cx="66" cy="104"></circle>
    <circle r="18" cx="1475" cy="350"></circle>
    <circle r="4" cx="603" cy="162"></circle>
    <circle r="1" cx="1875" cy="78"></circle>
    <circle r="4" cx="734" cy="871"></circle>
    <circle r="3" cx="31" cy="943"></circle>
    <circle r="11" cx="1292" cy="838"></circle>
    <circle r="16" cx="1128" cy="352"></circle>
    <circle r="8" cx="77" cy="567"></circle>
    <circle r="14" cx="450" cy="241"></circle>
    <circle r="23" cx="375" cy="316"></circle>
    <circle r="13" cx="1714" cy="19"></circle>
    <circle r="11" cx="1463" cy="610"></circle>
    <circle r="12" cx="47" cy="441"></circle>
    <circle r="18" cx="521" cy="845"></circle>
    <circle r="6" cx="1084" cy="481"></circle>
    <circle r="12" cx="1612" cy="533"></circle>
    <circle r="9" cx="1450" cy="238"></circle>
    <circle r="15" cx="1761" cy="823"></circle>
    <circle r="15" cx="34" cy="778"></circle>
    <circle r="15" cx="187" cy="630"></circle>
    <circle r="11" cx="1871" cy="943"></circle>
    <circle r="12" cx="282" cy="463"></circle>
    <circle r="8" cx="607" cy="473"></circle>
    <circle r="11" cx="162" cy="219"></circle>
    <circle r="19" cx="1717" cy="401"></circle>
    <circle r="3" cx="1862" cy="610"></circle>
    <circle r="10" cx="1348" cy="778"></circle>
    <circle r="15" cx="561" cy="251"></circle>
    <circle r="7" cx="278" cy="883"></circle>
    <circle r="12" cx="1572" cy="393"></circle>
    <circle r="13" cx="1259" cy="650"></circle>
    <circle r="14" cx="74" cy="357"></circle>
    <circle r="9" cx="202" cy="851"></circle>
    <circle r="17" cx="58" cy="256"></circle>
    <circle r="5" cx="1562" cy="63"></circle>
    <circle r="20" cx="655" cy="1024"></circle>
    <circle r="18" cx="498" cy="185"></circle>
    <circle r="8" cx="651" cy="713"></circle>
    <circle r="13" cx="800" cy="566"></circle>
    <circle r="3" cx="881" cy="91"></circle>
    <circle r="3" cx="1377" cy="485"></circle>
    <circle r="23" cx="1462" cy="857"></circle>
    <circle r="20" cx="915" cy="1053"></circle>
    <circle r="14" cx="1037" cy="945"></circle>
    <circle r="4" cx="1802" cy="752"></circle>
    <circle r="14" cx="536" cy="566"></circle>
    <circle r="10" cx="720" cy="426"></circle>
    <circle r="13" cx="555" cy="1065"></circle>
    <circle r="11" cx="19" cy="216"></circle>
    <circle r="11" cx="1181" cy="287"></circle>
    <circle r="22" cx="272" cy="235"></circle>
    <circle r="16" cx="1351" cy="888"></circle>
    <circle r="5" cx="495" cy="1030"></circle>
    <circle r="4" cx="414" cy="420"></circle>
    <circle r="17" cx="400" cy="222"></circle>
    <circle r="7" cx="914" cy="880"></circle>
    <circle r="1" cx="155" cy="388"></circle>
    <circle r="6" cx="1678" cy="787"></circle>
    <circle r="22" cx="480" cy="472"></circle>
    <circle r="13" cx="285" cy="602"></circle>
    <circle r="18" cx="640" cy="64"></circle>
    <circle r="6" cx="1089" cy="614"></circle>
    <circle r="12" cx="1883" cy="1010"></circle>
    <circle r="13" cx="634" cy="207"></circle>
    <circle r="16" cx="1802" cy="551"></circle>
    <circle r="14" cx="622" cy="670"></circle>
    <circle r="9" cx="343" cy="825"></circle>
    <circle r="10" cx="1355" cy="639"></circle>
    <circle r="13" cx="1593" cy="218"></circle>
    <circle r="3" cx="1664" cy="355"></circle>
    <circle r="21" cx="305" cy="76"></circle>
    <circle r="22" cx="1092" cy="1033"></circle>
    <circle r="12" cx="350" cy="426"></circle>
    <circle r="5" cx="569" cy="303"></circle>
    <circle r="13" cx="1907" cy="519"></circle>
    <circle r="14" cx="1244" cy="765"></circle>
    <circle r="9" cx="566" cy="696"></circle>
    <circle r="17" cx="412" cy="808"></circle>
    <circle r="19" cx="990" cy="969"></circle>
    <circle r="20" cx="360" cy="763"></circle>
    <circle r="15" cx="911" cy="594"></circle>
    <circle r="8" cx="1433" cy="733"></circle>
    <circle r="20" cx="1686" cy="97"></circle>
    <circle r="6" cx="1428" cy="428"></circle>
    <circle r="5" cx="463" cy="44"></circle>
    <circle r="22" cx="1593" cy="455"></circle>
    <circle r="11" cx="715" cy="119"></circle>
    <circle r="8" cx="1148" cy="1067"></circle>
    <circle r="2" cx="985" cy="268"></circle>
    <circle r="13" cx="221" cy="74"></circle>
    <circle r="13" cx="837" cy="261"></circle>
    <circle r="18" cx="1072" cy="673"></circle>
    <circle r="24" cx="809" cy="80"></circle>
    <circle r="7" cx="1561" cy="510"></circle>
    <circle r="4" cx="837" cy="515"></circle>
    <circle r="9" cx="406" cy="979"></circle>
    <circle r="18" cx="1566" cy="986"></circle>
    <circle r="14" cx="189" cy="435"></circle>
    <circle r="5" cx="1229" cy="211"></circle>
    <circle r="14" cx="59" cy="639"></circle>
    <circle r="5" cx="1343" cy="275"></circle>
    <circle r="3" cx="1856" cy="471"></circle>
    <circle r="12" cx="860" cy="736"></circle>
    <circle r="4" cx="1666" cy="245"></circle>
    <circle r="15" cx="1494" cy="694"></circle>
    <circle r="5" cx="1840" cy="119"></circle>
    <circle r="11" cx="1245" cy="864"></circle>
    <circle r="7" cx="1709" cy="1064"></circle>
    <circle r="14" cx="1459" cy="484"></circle>
    <circle r="24" cx="1647" cy="189"></circle>
    <circle r="5" cx="675" cy="158"></circle>
    <circle r="21" cx="712" cy="579"></circle>
    <circle r="22" cx="444" cy="708"></circle>
    <circle r="4" cx="1473" cy="933"></circle>
    <circle r="19" cx="1048" cy="541"></circle>
    <circle r="20" cx="261" cy="407"></circle>
    <circle r="1" cx="1455" cy="159"></circle>
    <circle r="12" cx="1616" cy="967"></circle>
    <circle r="8" cx="245" cy="185"></circle>
    <circle r="13" cx="920" cy="184"></circle>
    <circle r="15" cx="574" cy="359"></circle>
    <circle r="1" cx="614" cy="929"></circle>
    <circle r="23" cx="1267" cy="359"></circle>
    <circle r="21" cx="1147" cy="697"></circle>
    <circle r="21" cx="1549" cy="670"></circle>
    <circle r="17" cx="1328" cy="564"></circle>
    <circle r="16" cx="1201" cy="909"></circle>
    <circle r="22" cx="1006" cy="420"></circle>
    <circle r="5" cx="500" cy="696"></circle>
  </g>
</svg>