<svg id="visual" viewBox="0 0 1920 1080" width="1920" height="1080"
  xmlns="http://www.w3.org/2000/svg"
  xmlns:xlink="http://www.w3.org/1999/xlink" version="1.1">
  <rect x="0" y="0" width="1920" height="1080" fill="#FCAF3C"></rect>
  <g fill="none" stroke="#dd972e" stroke-width="10">
    <circle r="24" cx="1657" cy="797"></circle>
    <circle r="0" cx="1366" cy="201"></circle>
    <circle r="19" cx="1850" cy="568"></circle>
    <circle r="-1" cx="125" cy="263"></circle>
    <circle r="12" cx="1348" cy="7"></circle>
    <circle r="8" cx="889" cy="357"></circle>
    <circle r="1" cx="1789" cy="77"></circle>
    <circle r="12" cx="231" cy="578"></circle>
    <circle r="22" cx="1535" cy="813"></circle>
    <circle r="21" cx="1016" cy="706"></circle>
    <circle r="9" cx="215" cy="262"></circle>
    <circle r="18" cx="1796" cy="527"></circle>
    <circle r="8" cx="335" cy="939"></circle>
    <circle r="19" cx="1041" cy="541"></circle>
    <circle r="14" cx="992" cy="230"></circle>
    <circle r="16" cx="1728" cy="1055"></circle>
    <circle r="11" cx="1114" cy="701"></circle>
    <circle r="6" cx="1723" cy="897"></circle>
    <circle r="15" cx="1305" cy="456"></circle>
    <circle r="1" cx="1271" cy="997"></circle>
    <circle r="10" cx="394" cy="1009"></circle>
    <circle r="21" cx="198" cy="974"></circle>
    <circle r="1" cx="11" cy="33"></circle>
    <circle r="4" cx="1893" cy="619"></circle>
    <circle r="9" cx="575" cy="838"></circle>
    <circle r="5" cx="1003" cy="586"></circle>
    <circle r="18" cx="206" cy="508"></circle>
    <circle r="18" cx="578" cy="915"></circle>
    <circle r="21" cx="1178" cy="499"></circle>
    <circle r="13" cx="688" cy="301"></circle>
    <circle r="1" cx="660" cy="935"></circle>
    <circle r="16" cx="657" cy="1023"></circle>
    <circle r="15" cx="502" cy="1070"></circle>
    <circle r="11" cx="1715" cy="348"></circle>
    <circle r="8" cx="1030" cy="30"></circle>
    <circle r="18" cx="89" cy="684"></circle>
    <circle r="4" cx="1582" cy="909"></circle>
    <circle r="10" cx="472" cy="684"></circle>
    <circle r="7" cx="1527" cy="48"></circle>
    <circle r="-1" cx="1085" cy="234"></circle>
    <circle r="13" cx="1689" cy="19"></circle>
    <circle r="14" cx="1901" cy="164"></circle>
    <circle r="11" cx="577" cy="64"></circle>
    <circle r="21" cx="819" cy="560"></circle>
    <circle r="8" cx="388" cy="392"></circle>
    <circle r="-1" cx="1606" cy="81"></circle>
    <circle r="12" cx="1649" cy="180"></circle>
    <circle r="13" cx="390" cy="602"></circle>
    <circle r="10" cx="652" cy="653"></circle>
    <circle r="0" cx="1879" cy="1003"></circle>
    <circle r="7" cx="1170" cy="657"></circle>
    <circle r="14" cx="868" cy="1068"></circle>
    <circle r="13" cx="195" cy="125"></circle>
    <circle r="17" cx="77" cy="8"></circle>
    <circle r="18" cx="646" cy="72"></circle>
    <circle r="11" cx="355" cy="281"></circle>
    <circle r="8" cx="64" cy="895"></circle>
    <circle r="21" cx="1404" cy="10"></circle>
    <circle r="9" cx="79" cy="223"></circle>
    <circle r="16" cx="1607" cy="604"></circle>
    <circle r="2" cx="1661" cy="456"></circle>
    <circle r="19" cx="1229" cy="45"></circle>
    <circle r="-1" cx="407" cy="684"></circle>
    <circle r="13" cx="724" cy="581"></circle>
    <circle r="7" cx="201" cy="802"></circle>
    <circle r="22" cx="50" cy="281"></circle>
    <circle r="10" cx="1547" cy="96"></circle>
    <circle r="21" cx="548" cy="553"></circle>
    <circle r="1" cx="1151" cy="967"></circle>
    <circle r="0" cx="1300" cy="26"></circle>
    <circle r="21" cx="940" cy="419"></circle>
    <circle r="0" cx="1761" cy="314"></circle>
    <circle r="19" cx="383" cy="42"></circle>
    <circle r="5" cx="86" cy="765"></circle>
    <circle r="4" cx="259" cy="789"></circle>
    <circle r="3" cx="1795" cy="843"></circle>
    <circle r="1" cx="592" cy="718"></circle>
    <circle r="11" cx="959" cy="879"></circle>
    <circle r="3" cx="1004" cy="399"></circle>
    <circle r="5" cx="732" cy="902"></circle>
    <circle r="12" cx="1684" cy="620"></circle>
    <circle r="15" cx="1868" cy="121"></circle>
    <circle r="0" cx="1485" cy="194"></circle>
    <circle r="18" cx="1015" cy="145"></circle>
    <circle r="10" cx="1444" cy="232"></circle>
    <circle r="17" cx="628" cy="325"></circle>
    <circle r="13" cx="939" cy="779"></circle>
    <circle r="10" cx="235" cy="1013"></circle>
    <circle r="6" cx="1533" cy="713"></circle>
    <circle r="19" cx="1405" cy="760"></circle>
    <circle r="11" cx="609" cy="997"></circle>
    <circle r="14" cx="1711" cy="251"></circle>
    <circle r="21" cx="1281" cy="276"></circle>
    <circle r="19" cx="1423" cy="666"></circle>
    <circle r="19" cx="909" cy="602"></circle>
    <circle r="7" cx="1912" cy="800"></circle>
    <circle r="1" cx="160" cy="723"></circle>
    <circle r="18" cx="781" cy="933"></circle>
    <circle r="6" cx="1046" cy="101"></circle>
    <circle r="9" cx="482" cy="421"></circle>
    <circle r="12" cx="1096" cy="498"></circle>
    <circle r="22" cx="1848" cy="955"></circle>
    <circle r="1" cx="1175" cy="271"></circle>
    <circle r="11" cx="1288" cy="650"></circle>
    <circle r="9" cx="4" cy="693"></circle>
    <circle r="22" cx="301" cy="835"></circle>
    <circle r="7" cx="924" cy="56"></circle>
    <circle r="22" cx="1879" cy="675"></circle>
    <circle r="14" cx="1099" cy="807"></circle>
    <circle r="21" cx="1763" cy="1003"></circle>
    <circle r="16" cx="695" cy="432"></circle>
    <circle r="0" cx="467" cy="199"></circle>
    <circle r="19" cx="939" cy="133"></circle>
    <circle r="13" cx="1491" cy="363"></circle>
    <circle r="14" cx="1664" cy="1050"></circle>
    <circle r="18" cx="959" cy="1047"></circle>
    <circle r="11" cx="246" cy="113"></circle>
    <circle r="5" cx="501" cy="835"></circle>
    <circle r="11" cx="209" cy="880"></circle>
    <circle r="9" cx="841" cy="166"></circle>
    <circle r="8" cx="1844" cy="329"></circle>
    <circle r="6" cx="1768" cy="476"></circle>
    <circle r="15" cx="1896" cy="531"></circle>
    <circle r="5" cx="795" cy="45"></circle>
    <circle r="4" cx="272" cy="700"></circle>
    <circle r="1" cx="1338" cy="984"></circle>
    <circle r="22" cx="873" cy="672"></circle>
    <circle r="-1" cx="1513" cy="513"></circle>
    <circle r="12" cx="836" cy="612"></circle>
    <circle r="20" cx="1337" cy="614"></circle>
    <circle r="20" cx="136" cy="356"></circle>
    <circle r="2" cx="636" cy="565"></circle>
    <circle r="14" cx="269" cy="645"></circle>
    <circle r="12" cx="153" cy="189"></circle>
    <circle r="1" cx="737" cy="22"></circle>
    <circle r="22" cx="1075" cy="997"></circle>
    <circle r="14" cx="467" cy="282"></circle>
    <circle r="16" cx="1206" cy="959"></circle>
    <circle r="18" cx="258" cy="419"></circle>
    <circle r="14" cx="1376" cy="119"></circle>
    <circle r="6" cx="617" cy="805"></circle>
    <circle r="17" cx="858" cy="222"></circle>
    <circle r="13" cx="1800" cy="134"></circle>
    <circle r="12" cx="1427" cy="817"></circle>
    <circle r="14" cx="843" cy="961"></circle>
    <circle r="1" cx="172" cy="615"></circle>
    <circle r="7" cx="1406" cy="424"></circle>
    <circle r="13" cx="1917" cy="415"></circle>
    <circle r="8" cx="1134" cy="588"></circle>
    <circle r="14" cx="184" cy="1042"></circle>
    <circle r="12" cx="1360" cy="473"></circle>
    <circle r="7" cx="407" cy="886"></circle>
    <circle r="14" cx="1141" cy="228"></circle>
    <circle r="8" cx="335" cy="165"></circle>
    <circle r="-1" cx="1255" cy="776"></circle>
    <circle r="21" cx="144" cy="23"></circle>
    <circle r="5" cx="605" cy="1050"></circle>
    <circle r="18" cx="1267" cy="940"></circle>
    <circle r="15" cx="354" cy="817"></circle>
    <circle r="15" cx="1252" cy="449"></circle>
    <circle r="18" cx="514" cy="902"></circle>
    <circle r="4" cx="51" cy="455"></circle>
    <circle r="15" cx="1191" cy="170"></circle>
    <circle r="16" cx="451" cy="61"></circle>
    <circle r="4" cx="203" cy="671"></circle>
    <circle r="21" cx="1128" cy="1033"></circle>
    <circle r="0" cx="1463" cy="630"></circle>
    <circle r="15" cx="1096" cy="409"></circle>
    <circle r="7" cx="795" cy="1072"></circle>
    <circle r="12" cx="1803" cy="671"></circle>
    <circle r="18" cx="1554" cy="229"></circle>
    <circle r="11" cx="71" cy="1042"></circle>
    <circle r="12" cx="855" cy="480"></circle>
    <circle r="15" cx="1417" cy="543"></circle>
    <circle r="7" cx="1567" cy="349"></circle>
    <circle r="18" cx="38" cy="168"></circle>
    <circle r="1" cx="1789" cy="935"></circle>
    <circle r="19" cx="1078" cy="318"></circle>
    <circle r="22" cx="328" cy="636"></circle>
    <circle r="4" cx="932" cy="255"></circle>
    <circle r="2" cx="1311" cy="740"></circle>
    <circle r="7" cx="1271" cy="126"></circle>
    <circle r="14" cx="1676" cy="298"></circle>
    <circle r="13" cx="77" cy="580"></circle>
    <circle r="7" cx="138" cy="500"></circle>
    <circle r="8" cx="1234" cy="198"></circle>
    <circle r="10" cx="1698" cy="976"></circle>
    <circle r="21" cx="581" cy="416"></circle>
    <circle r="1" cx="904" cy="1012"></circle>
    <circle r="20" cx="1039" cy="1063"></circle>
    <circle r="1" cx="610" cy="276"></circle>
    <circle r="14" cx="521" cy="282"></circle>
    <circle r="22" cx="730" cy="980"></circle>
    <circle r="18" cx="626" cy="151"></circle>
    <circle r="2" cx="1401" cy="862"></circle>
    <circle r="14" cx="1322" cy="160"></circle>
    <circle r="16" cx="1333" cy="811"></circle>
    <circle r="1" cx="1017" cy="893"></circle>
    <circle r="4" cx="1758" cy="11"></circle>
    <circle r="12" cx="844" cy="95"></circle>
    <circle r="18" cx="431" cy="768"></circle>
    <circle r="8" cx="752" cy="430"></circle>
    <circle r="18" cx="1560" cy="411"></circle>
    <circle r="17" cx="901" cy="912"></circle>
    <circle r="13" cx="1769" cy="190"></circle>
    <circle r="5" cx="1768" cy="249"></circle>
    <circle r="21" cx="1264" cy="560"></circle>
    <circle r="4" cx="1159" cy="412"></circle>
    <circle r="18" cx="883" cy="15"></circle>
    <circle r="1" cx="305" cy="486"></circle>
    <circle r="14" cx="751" cy="316"></circle>
    <circle r="0" cx="1613" cy="251"></circle>
    <circle r="20" cx="1557" cy="586"></circle>
    <circle r="14" cx="1639" cy="698"></circle>
    <circle r="19" cx="736" cy="724"></circle>
    <circle r="9" cx="1370" cy="346"></circle>
    <circle r="7" cx="456" cy="955"></circle>
    <circle r="8" cx="1213" cy="1072"></circle>
    <circle r="9" cx="1254" cy="881"></circle>
    <circle r="4" cx="748" cy="505"></circle>
    <circle r="5" cx="696" cy="1073"></circle>
    <circle r="5" cx="223" cy="15"></circle>
    <circle r="5" cx="1070" cy="148"></circle>
    <circle r="14" cx="1078" cy="749"></circle>
    <circle r="12" cx="225" cy="739"></circle>
    <circle r="18" cx="1707" cy="836"></circle>
    <circle r="5" cx="309" cy="1066"></circle>
    <circle r="2" cx="1704" cy="153"></circle>
    <circle r="22" cx="316" cy="736"></circle>
    <circle r="8" cx="762" cy="198"></circle>
    <circle r="7" cx="1114" cy="902"></circle>
    <circle r="4" cx="1610" cy="461"></circle>
    <circle r="17" cx="804" cy="721"></circle>
    <circle r="9" cx="555" cy="348"></circle>
    <circle r="20" cx="1111" cy="107"></circle>
    <circle r="12" cx="126" cy="810"></circle>
  </g>
</svg>