<svg id="visual" viewBox="0 0 1920 1080" width="1920" height="1080"
  xmlns="http://www.w3.org/2000/svg"
  xmlns:xlink="http://www.w3.org/1999/xlink" version="1.1">
  <path d="M0 149L35.5 161.2C71 173.3 142 197.7 213.2 208.5C284.3 219.3 355.7 216.7 426.8 191.8C498 167 569 120 640 126.2C711 132.3 782 191.7 853.2 191C924.3 190.3 995.7 129.7 1066.8 110.5C1138 91.3 1209 113.7 1280 132.8C1351 152 1422 168 1493.2 182.7C1564.3 197.3 1635.7 210.7 1706.8 208C1778 205.3 1849 186.7 1884.5 177.3L1920 168L1920 0L1884.5 0C1849 0 1778 0 1706.8 0C1635.7 0 1564.3 0 1493.2 0C1422 0 1351 0 1280 0C1209 0 1138 0 1066.8 0C995.7 0 924.3 0 853.2 0C782 0 711 0 640 0C569 0 498 0 426.8 0C355.7 0 284.3 0 213.2 0C142 0 71 0 35.5 0L0 0Z" fill="#FFFFFF" stroke-linecap="round" stroke-linejoin="miter"></path>
</svg>